<mxfile host="Electron" modified="2023-08-14T17:45:13.585Z" agent="Mozilla/5.0 (Macintosh; Intel Mac OS X 10_15_7) AppleWebKit/537.36 (KHTML, like Gecko) draw.io/21.6.8 Chrome/114.0.5735.289 Electron/25.5.0 Safari/537.36" etag="7zzBUXnUtfekzoEqnv1A" version="21.6.8" type="device" pages="2">
  <diagram name="MetaLayer" id="Urb6_NRtM28I60FVmCar">
    <mxGraphModel dx="5060" dy="3645" grid="1" gridSize="10" guides="1" tooltips="1" connect="1" arrows="1" fold="1" page="1" pageScale="1" pageWidth="3300" pageHeight="2339" math="0" shadow="0">
      <root>
        <mxCell id="0" />
        <mxCell id="1" parent="0" />
        <mxCell id="prt4gkJ73rs69msBRRF9-139" value="MetaLayer (128)" style="rounded=0;whiteSpace=wrap;html=1;strokeWidth=3;fillColor=#FFE6CC;strokeColor=#d6b656;perimeterSpacing=1;gradientColor=none;fontSize=33;fontFamily=Avenir;fontStyle=1" vertex="1" parent="1">
          <mxGeometry x="430" y="1268" width="980" height="166" as="geometry" />
        </mxCell>
        <mxCell id="prt4gkJ73rs69msBRRF9-148" value="Source Node&lt;br style=&quot;font-size: 13px;&quot;&gt;Destination Node&lt;br style=&quot;font-size: 13px;&quot;&gt;Edge Feature" style="shape=offPageConnector;whiteSpace=wrap;html=1;strokeWidth=2;fontFamily=Avenir;fontSize=13;fontStyle=1;size=0.2857142857142857;verticalAlign=top;" vertex="1" parent="1">
          <mxGeometry x="450" y="1228" width="220" height="70" as="geometry" />
        </mxCell>
        <mxCell id="prt4gkJ73rs69msBRRF9-150" value="Source Node&lt;br&gt;Edge Feature" style="shape=offPageConnector;whiteSpace=wrap;html=1;strokeWidth=2;fontFamily=Avenir;fontSize=13;fontStyle=1;size=0.2857142857142857;verticalAlign=middle;" vertex="1" parent="1">
          <mxGeometry x="690" y="1228" width="220" height="70" as="geometry" />
        </mxCell>
        <mxCell id="prt4gkJ73rs69msBRRF9-152" value="Destination Node" style="shape=offPageConnector;whiteSpace=wrap;html=1;strokeWidth=2;fontFamily=Avenir;fontSize=13;fontStyle=1;size=0.2857142857142857;verticalAlign=middle;" vertex="1" parent="1">
          <mxGeometry x="930" y="1228" width="220" height="70" as="geometry" />
        </mxCell>
        <mxCell id="prt4gkJ73rs69msBRRF9-154" value="Global Feature" style="shape=offPageConnector;whiteSpace=wrap;html=1;strokeWidth=2;fontFamily=Avenir;fontSize=13;fontStyle=1;size=0.2857142857142857;verticalAlign=middle;" vertex="1" parent="1">
          <mxGeometry x="1170" y="1228" width="220" height="70" as="geometry" />
        </mxCell>
        <mxCell id="prt4gkJ73rs69msBRRF9-194" style="edgeStyle=orthogonalEdgeStyle;rounded=0;orthogonalLoop=1;jettySize=auto;html=1;exitX=0.5;exitY=1;exitDx=0;exitDy=0;entryX=0.5;entryY=0;entryDx=0;entryDy=0;strokeWidth=2;" edge="1" parent="1" source="prt4gkJ73rs69msBRRF9-188" target="prt4gkJ73rs69msBRRF9-189">
          <mxGeometry relative="1" as="geometry" />
        </mxCell>
        <mxCell id="prt4gkJ73rs69msBRRF9-188" value="Dropout (0.1)" style="rounded=1;whiteSpace=wrap;html=1;fillColor=#d5e8d4;strokeColor=#82b366;strokeWidth=3;fontFamily=Avenir;fontSize=13;fontStyle=1" vertex="1" parent="1">
          <mxGeometry x="825" y="1498" width="200" height="30" as="geometry" />
        </mxCell>
        <mxCell id="prt4gkJ73rs69msBRRF9-195" style="edgeStyle=orthogonalEdgeStyle;rounded=0;orthogonalLoop=1;jettySize=auto;html=1;exitX=0.5;exitY=1;exitDx=0;exitDy=0;entryX=0.5;entryY=0;entryDx=0;entryDy=0;strokeWidth=2;" edge="1" parent="1" source="prt4gkJ73rs69msBRRF9-189" target="prt4gkJ73rs69msBRRF9-190">
          <mxGeometry relative="1" as="geometry" />
        </mxCell>
        <mxCell id="prt4gkJ73rs69msBRRF9-189" value="Linear &lt;br style=&quot;font-size: 13px;&quot;&gt;(16, 1)" style="rounded=1;whiteSpace=wrap;html=1;fillColor=#dae8fc;strokeColor=#6c8ebf;strokeWidth=3;fontFamily=Avenir;fontSize=13;fontStyle=1" vertex="1" parent="1">
          <mxGeometry x="825" y="1548" width="200" height="60" as="geometry" />
        </mxCell>
        <mxCell id="prt4gkJ73rs69msBRRF9-203" style="edgeStyle=orthogonalEdgeStyle;rounded=0;orthogonalLoop=1;jettySize=auto;html=1;exitX=0.5;exitY=1;exitDx=0;exitDy=0;entryX=0.5;entryY=0;entryDx=0;entryDy=0;entryPerimeter=0;strokeWidth=2;" edge="1" parent="1" source="prt4gkJ73rs69msBRRF9-190" target="prt4gkJ73rs69msBRRF9-202">
          <mxGeometry relative="1" as="geometry" />
        </mxCell>
        <mxCell id="prt4gkJ73rs69msBRRF9-190" value="Sigmoid" style="rounded=1;whiteSpace=wrap;html=1;fillColor=#d5e8d4;strokeColor=#82b366;strokeWidth=3;fontFamily=Avenir;fontSize=13;fontStyle=1" vertex="1" parent="1">
          <mxGeometry x="825" y="1628" width="200" height="30" as="geometry" />
        </mxCell>
        <mxCell id="prt4gkJ73rs69msBRRF9-197" style="edgeStyle=orthogonalEdgeStyle;rounded=0;orthogonalLoop=1;jettySize=auto;html=1;exitX=0.5;exitY=1;exitDx=0;exitDy=0;entryX=0.5;entryY=0;entryDx=0;entryDy=0;strokeWidth=2;" edge="1" parent="1" source="prt4gkJ73rs69msBRRF9-198" target="prt4gkJ73rs69msBRRF9-200">
          <mxGeometry relative="1" as="geometry" />
        </mxCell>
        <mxCell id="prt4gkJ73rs69msBRRF9-198" value="Dropout (0.1)" style="rounded=1;whiteSpace=wrap;html=1;fillColor=#d5e8d4;strokeColor=#82b366;strokeWidth=3;fontFamily=Avenir;fontSize=13;fontStyle=1" vertex="1" parent="1">
          <mxGeometry x="460" y="1498" width="200" height="30" as="geometry" />
        </mxCell>
        <mxCell id="prt4gkJ73rs69msBRRF9-199" style="edgeStyle=orthogonalEdgeStyle;rounded=0;orthogonalLoop=1;jettySize=auto;html=1;exitX=0.5;exitY=1;exitDx=0;exitDy=0;entryX=0.5;entryY=0;entryDx=0;entryDy=0;strokeWidth=2;" edge="1" parent="1" source="prt4gkJ73rs69msBRRF9-200" target="prt4gkJ73rs69msBRRF9-201">
          <mxGeometry relative="1" as="geometry" />
        </mxCell>
        <mxCell id="prt4gkJ73rs69msBRRF9-200" value="Linear &lt;br style=&quot;font-size: 13px;&quot;&gt;(19, 1)" style="rounded=1;whiteSpace=wrap;html=1;fillColor=#dae8fc;strokeColor=#6c8ebf;strokeWidth=3;fontFamily=Avenir;fontSize=13;fontStyle=1" vertex="1" parent="1">
          <mxGeometry x="460" y="1548" width="200" height="60" as="geometry" />
        </mxCell>
        <mxCell id="prt4gkJ73rs69msBRRF9-201" value="Sigmoid" style="rounded=1;whiteSpace=wrap;html=1;fillColor=#d5e8d4;strokeColor=#82b366;strokeWidth=3;fontFamily=Avenir;fontSize=13;fontStyle=1" vertex="1" parent="1">
          <mxGeometry x="460" y="1628" width="200" height="30" as="geometry" />
        </mxCell>
        <mxCell id="prt4gkJ73rs69msBRRF9-202" value="Node Labels" style="strokeWidth=2;html=1;shape=mxgraph.flowchart.start_1;whiteSpace=wrap;fillColor=#e1d5e7;strokeColor=#9673a6;fontStyle=1;fontSize=13;" vertex="1" parent="1">
          <mxGeometry x="825" y="1698" width="200" height="60" as="geometry" />
        </mxCell>
        <mxCell id="prt4gkJ73rs69msBRRF9-204" style="edgeStyle=orthogonalEdgeStyle;rounded=0;orthogonalLoop=1;jettySize=auto;html=1;exitX=0.5;exitY=1;exitDx=0;exitDy=0;entryX=0.5;entryY=0;entryDx=0;entryDy=0;entryPerimeter=0;strokeWidth=2;" edge="1" parent="1" target="prt4gkJ73rs69msBRRF9-205">
          <mxGeometry relative="1" as="geometry">
            <mxPoint x="560" y="1658" as="sourcePoint" />
          </mxGeometry>
        </mxCell>
        <mxCell id="prt4gkJ73rs69msBRRF9-205" value="Edge Labels" style="strokeWidth=2;html=1;shape=mxgraph.flowchart.start_1;whiteSpace=wrap;fillColor=#e1d5e7;strokeColor=#9673a6;fontStyle=1;fontSize=13;" vertex="1" parent="1">
          <mxGeometry x="460" y="1698" width="200" height="60" as="geometry" />
        </mxCell>
        <mxCell id="HX9ZZycSzdoMxzqkAREc-10" value="" style="rounded=0;whiteSpace=wrap;html=1;strokeWidth=3;fillColor=#FFE6CC;strokeColor=#d6b656;perimeterSpacing=1;gradientColor=none;" vertex="1" parent="1">
          <mxGeometry x="1840" y="826" width="980" height="550" as="geometry" />
        </mxCell>
        <mxCell id="HX9ZZycSzdoMxzqkAREc-3" value="Edge Features" style="shape=trapezoid;perimeter=trapezoidPerimeter;whiteSpace=wrap;html=1;fixedSize=1;strokeWidth=2;fillColor=#f8cecc;strokeColor=#b85450;fontStyle=1;fontSize=16;" vertex="1" parent="1">
          <mxGeometry x="1860" y="1346" width="220" height="60" as="geometry" />
        </mxCell>
        <mxCell id="HX9ZZycSzdoMxzqkAREc-7" value="Node Features" style="shape=trapezoid;perimeter=trapezoidPerimeter;whiteSpace=wrap;html=1;fixedSize=1;strokeWidth=2;fillColor=#f8cecc;strokeColor=#b85450;fontStyle=1;fontSize=16;" vertex="1" parent="1">
          <mxGeometry x="2225" y="1346" width="220" height="60" as="geometry" />
        </mxCell>
        <mxCell id="HX9ZZycSzdoMxzqkAREc-9" value="Global Features" style="shape=trapezoid;perimeter=trapezoidPerimeter;whiteSpace=wrap;html=1;fixedSize=1;strokeWidth=2;fillColor=#f8cecc;strokeColor=#b85450;fontStyle=1;fontSize=16;" vertex="1" parent="1">
          <mxGeometry x="2580" y="1346" width="220" height="60" as="geometry" />
        </mxCell>
        <mxCell id="HX9ZZycSzdoMxzqkAREc-11" style="edgeStyle=orthogonalEdgeStyle;rounded=0;orthogonalLoop=1;jettySize=auto;html=1;exitX=0.5;exitY=1;exitDx=0;exitDy=0;entryX=0.5;entryY=0;entryDx=0;entryDy=0;strokeWidth=2;" edge="1" parent="1" source="HX9ZZycSzdoMxzqkAREc-12" target="HX9ZZycSzdoMxzqkAREc-14">
          <mxGeometry relative="1" as="geometry" />
        </mxCell>
        <mxCell id="HX9ZZycSzdoMxzqkAREc-12" value="Linear &lt;br style=&quot;font-size: 13px;&quot;&gt;(19 + 2x16, 64)" style="rounded=1;whiteSpace=wrap;html=1;fillColor=#dae8fc;strokeColor=#6c8ebf;strokeWidth=3;fontFamily=Avenir;fontSize=13;fontStyle=1" vertex="1" parent="1">
          <mxGeometry x="1870" y="896" width="200" height="60" as="geometry" />
        </mxCell>
        <mxCell id="HX9ZZycSzdoMxzqkAREc-13" style="edgeStyle=orthogonalEdgeStyle;rounded=0;orthogonalLoop=1;jettySize=auto;html=1;exitX=0.5;exitY=1;exitDx=0;exitDy=0;entryX=0.5;entryY=0;entryDx=0;entryDy=0;strokeWidth=2;" edge="1" parent="1" source="HX9ZZycSzdoMxzqkAREc-14" target="HX9ZZycSzdoMxzqkAREc-16">
          <mxGeometry relative="1" as="geometry" />
        </mxCell>
        <mxCell id="HX9ZZycSzdoMxzqkAREc-14" value="BatchNorm1d (64)" style="rounded=1;whiteSpace=wrap;html=1;fillColor=#d5e8d4;strokeColor=#82b366;strokeWidth=3;fontFamily=Avenir;fontSize=13;fontStyle=1" vertex="1" parent="1">
          <mxGeometry x="1870" y="976" width="200" height="30" as="geometry" />
        </mxCell>
        <mxCell id="HX9ZZycSzdoMxzqkAREc-15" style="edgeStyle=orthogonalEdgeStyle;rounded=0;orthogonalLoop=1;jettySize=auto;html=1;exitX=0.5;exitY=1;exitDx=0;exitDy=0;entryX=0.5;entryY=0;entryDx=0;entryDy=0;strokeWidth=2;" edge="1" parent="1" source="HX9ZZycSzdoMxzqkAREc-16" target="HX9ZZycSzdoMxzqkAREc-27">
          <mxGeometry relative="1" as="geometry" />
        </mxCell>
        <mxCell id="HX9ZZycSzdoMxzqkAREc-16" value="ReLU" style="rounded=1;whiteSpace=wrap;html=1;fillColor=#d5e8d4;strokeColor=#82b366;strokeWidth=3;fontFamily=Avenir;fontSize=13;fontStyle=1" vertex="1" parent="1">
          <mxGeometry x="1870" y="1026" width="200" height="30" as="geometry" />
        </mxCell>
        <mxCell id="HX9ZZycSzdoMxzqkAREc-53" style="edgeStyle=orthogonalEdgeStyle;rounded=0;orthogonalLoop=1;jettySize=auto;html=1;exitX=0.5;exitY=1;exitDx=0;exitDy=0;entryX=0.5;entryY=0;entryDx=0;entryDy=0;strokeWidth=2;" edge="1" parent="1" source="HX9ZZycSzdoMxzqkAREc-17" target="HX9ZZycSzdoMxzqkAREc-9">
          <mxGeometry relative="1" as="geometry" />
        </mxCell>
        <mxCell id="HX9ZZycSzdoMxzqkAREc-17" value="Placeholder" style="rounded=1;whiteSpace=wrap;html=1;fillColor=#f5f5f5;strokeColor=#666666;strokeWidth=3;fontFamily=Avenir;fontSize=13;fontStyle=1;fontColor=#333333;" vertex="1" parent="1">
          <mxGeometry x="2600" y="1106" width="180" height="60" as="geometry" />
        </mxCell>
        <mxCell id="HX9ZZycSzdoMxzqkAREc-18" style="edgeStyle=orthogonalEdgeStyle;rounded=0;orthogonalLoop=1;jettySize=auto;html=1;exitX=0.5;exitY=1;exitDx=0;exitDy=0;entryX=0.5;entryY=0;entryDx=0;entryDy=0;fontSize=11;strokeWidth=2;" edge="1" parent="1" source="HX9ZZycSzdoMxzqkAREc-19" target="HX9ZZycSzdoMxzqkAREc-12">
          <mxGeometry relative="1" as="geometry" />
        </mxCell>
        <mxCell id="HX9ZZycSzdoMxzqkAREc-19" value="Source Node&lt;br style=&quot;font-size: 13px;&quot;&gt;Destination Node&lt;br style=&quot;font-size: 13px;&quot;&gt;Edge Feature" style="shape=offPageConnector;whiteSpace=wrap;html=1;strokeWidth=2;fontFamily=Avenir;fontSize=13;fontStyle=1;size=0.2857142857142857;verticalAlign=top;" vertex="1" parent="1">
          <mxGeometry x="1860" y="786" width="220" height="70" as="geometry" />
        </mxCell>
        <mxCell id="HX9ZZycSzdoMxzqkAREc-20" style="edgeStyle=orthogonalEdgeStyle;rounded=0;orthogonalLoop=1;jettySize=auto;html=1;exitX=0.5;exitY=1;exitDx=0;exitDy=0;entryX=0.5;entryY=0;entryDx=0;entryDy=0;strokeWidth=2;" edge="1" parent="1" source="HX9ZZycSzdoMxzqkAREc-21" target="HX9ZZycSzdoMxzqkAREc-34">
          <mxGeometry relative="1" as="geometry" />
        </mxCell>
        <mxCell id="HX9ZZycSzdoMxzqkAREc-21" value="Source Node&lt;br&gt;Edge Feature" style="shape=offPageConnector;whiteSpace=wrap;html=1;strokeWidth=2;fontFamily=Avenir;fontSize=13;fontStyle=1;size=0.2857142857142857;verticalAlign=middle;" vertex="1" parent="1">
          <mxGeometry x="2100" y="786" width="220" height="70" as="geometry" />
        </mxCell>
        <mxCell id="HX9ZZycSzdoMxzqkAREc-48" style="edgeStyle=orthogonalEdgeStyle;rounded=0;orthogonalLoop=1;jettySize=auto;html=1;exitX=0.5;exitY=1;exitDx=0;exitDy=0;entryX=0.772;entryY=0;entryDx=0;entryDy=0;entryPerimeter=0;strokeWidth=2;" edge="1" parent="1" source="HX9ZZycSzdoMxzqkAREc-23" target="HX9ZZycSzdoMxzqkAREc-40">
          <mxGeometry relative="1" as="geometry" />
        </mxCell>
        <mxCell id="HX9ZZycSzdoMxzqkAREc-23" value="Destination Node" style="shape=offPageConnector;whiteSpace=wrap;html=1;strokeWidth=2;fontFamily=Avenir;fontSize=13;fontStyle=1;size=0.2857142857142857;verticalAlign=middle;" vertex="1" parent="1">
          <mxGeometry x="2340" y="786" width="220" height="70" as="geometry" />
        </mxCell>
        <mxCell id="HX9ZZycSzdoMxzqkAREc-24" style="edgeStyle=orthogonalEdgeStyle;rounded=0;orthogonalLoop=1;jettySize=auto;html=1;exitX=0.5;exitY=1;exitDx=0;exitDy=0;entryX=0.5;entryY=0;entryDx=0;entryDy=0;strokeWidth=2;" edge="1" parent="1" source="HX9ZZycSzdoMxzqkAREc-25" target="HX9ZZycSzdoMxzqkAREc-17">
          <mxGeometry relative="1" as="geometry" />
        </mxCell>
        <mxCell id="HX9ZZycSzdoMxzqkAREc-25" value="Global Feature" style="shape=offPageConnector;whiteSpace=wrap;html=1;strokeWidth=2;fontFamily=Avenir;fontSize=13;fontStyle=1;size=0.2857142857142857;verticalAlign=middle;" vertex="1" parent="1">
          <mxGeometry x="2580" y="786" width="220" height="70" as="geometry" />
        </mxCell>
        <mxCell id="HX9ZZycSzdoMxzqkAREc-26" style="edgeStyle=orthogonalEdgeStyle;rounded=0;orthogonalLoop=1;jettySize=auto;html=1;exitX=0.5;exitY=1;exitDx=0;exitDy=0;entryX=0.5;entryY=0;entryDx=0;entryDy=0;strokeWidth=2;" edge="1" parent="1" source="HX9ZZycSzdoMxzqkAREc-27" target="HX9ZZycSzdoMxzqkAREc-29">
          <mxGeometry relative="1" as="geometry" />
        </mxCell>
        <mxCell id="HX9ZZycSzdoMxzqkAREc-27" value="Linear &lt;br style=&quot;font-size: 13px;&quot;&gt;(64, 64)" style="rounded=1;whiteSpace=wrap;html=1;fillColor=#dae8fc;strokeColor=#6c8ebf;strokeWidth=3;fontFamily=Avenir;fontSize=13;fontStyle=1" vertex="1" parent="1">
          <mxGeometry x="1870" y="1076" width="200" height="60" as="geometry" />
        </mxCell>
        <mxCell id="HX9ZZycSzdoMxzqkAREc-28" style="edgeStyle=orthogonalEdgeStyle;rounded=0;orthogonalLoop=1;jettySize=auto;html=1;exitX=0.5;exitY=1;exitDx=0;exitDy=0;entryX=0.5;entryY=0;entryDx=0;entryDy=0;strokeWidth=2;" edge="1" parent="1" source="HX9ZZycSzdoMxzqkAREc-29" target="HX9ZZycSzdoMxzqkAREc-31">
          <mxGeometry relative="1" as="geometry" />
        </mxCell>
        <mxCell id="HX9ZZycSzdoMxzqkAREc-29" value="BatchNorm1d (64)" style="rounded=1;whiteSpace=wrap;html=1;fillColor=#d5e8d4;strokeColor=#82b366;strokeWidth=3;fontFamily=Avenir;fontSize=13;fontStyle=1" vertex="1" parent="1">
          <mxGeometry x="1870" y="1156" width="200" height="30" as="geometry" />
        </mxCell>
        <mxCell id="HX9ZZycSzdoMxzqkAREc-30" style="edgeStyle=orthogonalEdgeStyle;rounded=0;orthogonalLoop=1;jettySize=auto;html=1;exitX=0.5;exitY=1;exitDx=0;exitDy=0;entryX=0.5;entryY=0;entryDx=0;entryDy=0;strokeWidth=2;" edge="1" parent="1" source="HX9ZZycSzdoMxzqkAREc-31" target="HX9ZZycSzdoMxzqkAREc-32">
          <mxGeometry relative="1" as="geometry" />
        </mxCell>
        <mxCell id="HX9ZZycSzdoMxzqkAREc-31" value="ReLU" style="rounded=1;whiteSpace=wrap;html=1;fillColor=#d5e8d4;strokeColor=#82b366;strokeWidth=3;fontFamily=Avenir;fontSize=13;fontStyle=1" vertex="1" parent="1">
          <mxGeometry x="1870" y="1206" width="200" height="30" as="geometry" />
        </mxCell>
        <mxCell id="HX9ZZycSzdoMxzqkAREc-51" style="edgeStyle=orthogonalEdgeStyle;rounded=0;orthogonalLoop=1;jettySize=auto;html=1;exitX=0.5;exitY=1;exitDx=0;exitDy=0;entryX=0.5;entryY=0;entryDx=0;entryDy=0;strokeWidth=2;" edge="1" parent="1" source="HX9ZZycSzdoMxzqkAREc-32" target="HX9ZZycSzdoMxzqkAREc-3">
          <mxGeometry relative="1" as="geometry" />
        </mxCell>
        <mxCell id="HX9ZZycSzdoMxzqkAREc-32" value="Linear &lt;br style=&quot;font-size: 13px;&quot;&gt;(64, 19)" style="rounded=1;whiteSpace=wrap;html=1;fillColor=#dae8fc;strokeColor=#6c8ebf;strokeWidth=3;fontFamily=Avenir;fontSize=13;fontStyle=1" vertex="1" parent="1">
          <mxGeometry x="1870" y="1256" width="200" height="60" as="geometry" />
        </mxCell>
        <mxCell id="HX9ZZycSzdoMxzqkAREc-33" style="edgeStyle=orthogonalEdgeStyle;rounded=0;orthogonalLoop=1;jettySize=auto;html=1;exitX=0.5;exitY=1;exitDx=0;exitDy=0;entryX=0.5;entryY=0;entryDx=0;entryDy=0;strokeWidth=2;" edge="1" parent="1" source="HX9ZZycSzdoMxzqkAREc-34" target="HX9ZZycSzdoMxzqkAREc-36">
          <mxGeometry relative="1" as="geometry" />
        </mxCell>
        <mxCell id="HX9ZZycSzdoMxzqkAREc-34" value="Linear &lt;br style=&quot;font-size: 13px;&quot;&gt;(19 + 16, 64)" style="rounded=1;whiteSpace=wrap;html=1;fillColor=#dae8fc;strokeColor=#6c8ebf;strokeWidth=3;fontFamily=Avenir;fontSize=13;fontStyle=1" vertex="1" parent="1">
          <mxGeometry x="2110" y="896" width="200" height="60" as="geometry" />
        </mxCell>
        <mxCell id="HX9ZZycSzdoMxzqkAREc-35" style="edgeStyle=orthogonalEdgeStyle;rounded=0;orthogonalLoop=1;jettySize=auto;html=1;exitX=0.5;exitY=1;exitDx=0;exitDy=0;entryX=0.5;entryY=0;entryDx=0;entryDy=0;strokeWidth=2;" edge="1" parent="1" source="HX9ZZycSzdoMxzqkAREc-36" target="HX9ZZycSzdoMxzqkAREc-38">
          <mxGeometry relative="1" as="geometry" />
        </mxCell>
        <mxCell id="HX9ZZycSzdoMxzqkAREc-36" value="BatchNorm1d (64)" style="rounded=1;whiteSpace=wrap;html=1;fillColor=#d5e8d4;strokeColor=#82b366;strokeWidth=3;fontFamily=Avenir;fontSize=13;fontStyle=1" vertex="1" parent="1">
          <mxGeometry x="2110" y="976" width="200" height="30" as="geometry" />
        </mxCell>
        <mxCell id="HX9ZZycSzdoMxzqkAREc-49" style="edgeStyle=orthogonalEdgeStyle;rounded=0;orthogonalLoop=1;jettySize=auto;html=1;exitX=0.5;exitY=1;exitDx=0;exitDy=0;entryX=0.227;entryY=0;entryDx=0;entryDy=0;entryPerimeter=0;strokeWidth=2;" edge="1" parent="1" source="HX9ZZycSzdoMxzqkAREc-38" target="HX9ZZycSzdoMxzqkAREc-40">
          <mxGeometry relative="1" as="geometry" />
        </mxCell>
        <mxCell id="HX9ZZycSzdoMxzqkAREc-38" value="ReLU" style="rounded=1;whiteSpace=wrap;html=1;fillColor=#d5e8d4;strokeColor=#82b366;strokeWidth=3;fontFamily=Avenir;fontSize=13;fontStyle=1" vertex="1" parent="1">
          <mxGeometry x="2110" y="1026" width="200" height="30" as="geometry" />
        </mxCell>
        <mxCell id="HX9ZZycSzdoMxzqkAREc-39" style="edgeStyle=orthogonalEdgeStyle;rounded=0;orthogonalLoop=1;jettySize=auto;html=1;exitX=0.5;exitY=1;exitDx=0;exitDy=0;entryX=0.5;entryY=0;entryDx=0;entryDy=0;strokeWidth=2;" edge="1" parent="1" source="HX9ZZycSzdoMxzqkAREc-40" target="HX9ZZycSzdoMxzqkAREc-42">
          <mxGeometry relative="1" as="geometry" />
        </mxCell>
        <mxCell id="HX9ZZycSzdoMxzqkAREc-40" value="Linear &lt;br style=&quot;font-size: 13px;&quot;&gt;(64 + 16, 64 + 16)" style="rounded=1;whiteSpace=wrap;html=1;fillColor=#dae8fc;strokeColor=#6c8ebf;strokeWidth=3;fontFamily=Avenir;fontSize=13;fontStyle=1" vertex="1" parent="1">
          <mxGeometry x="2110" y="1076" width="440" height="60" as="geometry" />
        </mxCell>
        <mxCell id="HX9ZZycSzdoMxzqkAREc-41" style="edgeStyle=orthogonalEdgeStyle;rounded=0;orthogonalLoop=1;jettySize=auto;html=1;exitX=0.5;exitY=1;exitDx=0;exitDy=0;entryX=0.5;entryY=0;entryDx=0;entryDy=0;strokeWidth=2;" edge="1" parent="1" source="HX9ZZycSzdoMxzqkAREc-42" target="HX9ZZycSzdoMxzqkAREc-44">
          <mxGeometry relative="1" as="geometry" />
        </mxCell>
        <mxCell id="HX9ZZycSzdoMxzqkAREc-42" value="BatchNorm1d (64)" style="rounded=1;whiteSpace=wrap;html=1;fillColor=#d5e8d4;strokeColor=#82b366;strokeWidth=3;fontFamily=Avenir;fontSize=13;fontStyle=1" vertex="1" parent="1">
          <mxGeometry x="2110" y="1156" width="450" height="30" as="geometry" />
        </mxCell>
        <mxCell id="HX9ZZycSzdoMxzqkAREc-43" style="edgeStyle=orthogonalEdgeStyle;rounded=0;orthogonalLoop=1;jettySize=auto;html=1;exitX=0.5;exitY=1;exitDx=0;exitDy=0;entryX=0.5;entryY=0;entryDx=0;entryDy=0;strokeWidth=2;" edge="1" parent="1" source="HX9ZZycSzdoMxzqkAREc-44" target="HX9ZZycSzdoMxzqkAREc-45">
          <mxGeometry relative="1" as="geometry" />
        </mxCell>
        <mxCell id="HX9ZZycSzdoMxzqkAREc-44" value="ReLU" style="rounded=1;whiteSpace=wrap;html=1;fillColor=#d5e8d4;strokeColor=#82b366;strokeWidth=3;fontFamily=Avenir;fontSize=13;fontStyle=1" vertex="1" parent="1">
          <mxGeometry x="2110" y="1206" width="450" height="30" as="geometry" />
        </mxCell>
        <mxCell id="HX9ZZycSzdoMxzqkAREc-52" style="edgeStyle=orthogonalEdgeStyle;rounded=0;orthogonalLoop=1;jettySize=auto;html=1;exitX=0.5;exitY=1;exitDx=0;exitDy=0;entryX=0.5;entryY=0;entryDx=0;entryDy=0;strokeWidth=2;" edge="1" parent="1" source="HX9ZZycSzdoMxzqkAREc-45" target="HX9ZZycSzdoMxzqkAREc-7">
          <mxGeometry relative="1" as="geometry" />
        </mxCell>
        <mxCell id="HX9ZZycSzdoMxzqkAREc-45" value="Linear &lt;br style=&quot;font-size: 13px;&quot;&gt;(64 + 16, 16)" style="rounded=1;whiteSpace=wrap;html=1;fillColor=#dae8fc;strokeColor=#6c8ebf;strokeWidth=3;fontFamily=Avenir;fontSize=13;fontStyle=1" vertex="1" parent="1">
          <mxGeometry x="2110" y="1256" width="450" height="60" as="geometry" />
        </mxCell>
        <mxCell id="HX9ZZycSzdoMxzqkAREc-57" style="edgeStyle=orthogonalEdgeStyle;rounded=0;orthogonalLoop=1;jettySize=auto;html=1;exitX=0.5;exitY=1;exitDx=0;exitDy=0;entryX=0.5;entryY=0;entryDx=0;entryDy=0;strokeWidth=2;" edge="1" parent="1" source="HX9ZZycSzdoMxzqkAREc-54" target="prt4gkJ73rs69msBRRF9-198">
          <mxGeometry relative="1" as="geometry" />
        </mxCell>
        <mxCell id="HX9ZZycSzdoMxzqkAREc-54" value="Edge Features" style="shape=trapezoid;perimeter=trapezoidPerimeter;whiteSpace=wrap;html=1;fixedSize=1;strokeWidth=2;fillColor=#f8cecc;strokeColor=#b85450;fontStyle=1;fontSize=16;" vertex="1" parent="1">
          <mxGeometry x="450" y="1404" width="220" height="60" as="geometry" />
        </mxCell>
        <mxCell id="HX9ZZycSzdoMxzqkAREc-58" style="edgeStyle=orthogonalEdgeStyle;rounded=0;orthogonalLoop=1;jettySize=auto;html=1;exitX=0.5;exitY=1;exitDx=0;exitDy=0;entryX=0.5;entryY=0;entryDx=0;entryDy=0;strokeWidth=2;" edge="1" parent="1" source="HX9ZZycSzdoMxzqkAREc-55" target="prt4gkJ73rs69msBRRF9-188">
          <mxGeometry relative="1" as="geometry" />
        </mxCell>
        <mxCell id="HX9ZZycSzdoMxzqkAREc-55" value="Node Features" style="shape=trapezoid;perimeter=trapezoidPerimeter;whiteSpace=wrap;html=1;fixedSize=1;strokeWidth=2;fillColor=#f8cecc;strokeColor=#b85450;fontStyle=1;fontSize=16;" vertex="1" parent="1">
          <mxGeometry x="815" y="1404" width="220" height="60" as="geometry" />
        </mxCell>
        <mxCell id="HX9ZZycSzdoMxzqkAREc-56" value="Global Features" style="shape=trapezoid;perimeter=trapezoidPerimeter;whiteSpace=wrap;html=1;fixedSize=1;strokeWidth=2;fillColor=#f8cecc;strokeColor=#b85450;fontStyle=1;fontSize=16;" vertex="1" parent="1">
          <mxGeometry x="1170" y="1404" width="220" height="60" as="geometry" />
        </mxCell>
        <mxCell id="HX9ZZycSzdoMxzqkAREc-59" value="MetaLayer (256)" style="rounded=0;whiteSpace=wrap;html=1;strokeWidth=3;fillColor=#FFE6CC;strokeColor=#d6b656;perimeterSpacing=1;gradientColor=none;fontSize=33;fontFamily=Avenir;fontStyle=1" vertex="1" parent="1">
          <mxGeometry x="430" y="960" width="980" height="166" as="geometry" />
        </mxCell>
        <mxCell id="HX9ZZycSzdoMxzqkAREc-60" value="Source Node&lt;br style=&quot;font-size: 13px;&quot;&gt;Destination Node&lt;br style=&quot;font-size: 13px;&quot;&gt;Edge Feature" style="shape=offPageConnector;whiteSpace=wrap;html=1;strokeWidth=2;fontFamily=Avenir;fontSize=13;fontStyle=1;size=0.2857142857142857;verticalAlign=top;" vertex="1" parent="1">
          <mxGeometry x="450" y="920" width="220" height="70" as="geometry" />
        </mxCell>
        <mxCell id="HX9ZZycSzdoMxzqkAREc-61" value="Source Node&lt;br&gt;Edge Feature" style="shape=offPageConnector;whiteSpace=wrap;html=1;strokeWidth=2;fontFamily=Avenir;fontSize=13;fontStyle=1;size=0.2857142857142857;verticalAlign=middle;" vertex="1" parent="1">
          <mxGeometry x="690" y="920" width="220" height="70" as="geometry" />
        </mxCell>
        <mxCell id="HX9ZZycSzdoMxzqkAREc-62" value="Destination Node" style="shape=offPageConnector;whiteSpace=wrap;html=1;strokeWidth=2;fontFamily=Avenir;fontSize=13;fontStyle=1;size=0.2857142857142857;verticalAlign=middle;" vertex="1" parent="1">
          <mxGeometry x="930" y="920" width="220" height="70" as="geometry" />
        </mxCell>
        <mxCell id="HX9ZZycSzdoMxzqkAREc-63" value="Global Feature" style="shape=offPageConnector;whiteSpace=wrap;html=1;strokeWidth=2;fontFamily=Avenir;fontSize=13;fontStyle=1;size=0.2857142857142857;verticalAlign=middle;" vertex="1" parent="1">
          <mxGeometry x="1170" y="920" width="220" height="70" as="geometry" />
        </mxCell>
        <mxCell id="HX9ZZycSzdoMxzqkAREc-82" style="rounded=0;orthogonalLoop=1;jettySize=auto;html=1;exitX=0.5;exitY=1;exitDx=0;exitDy=0;entryX=0.5;entryY=0;entryDx=0;entryDy=0;strokeWidth=2;" edge="1" parent="1" source="HX9ZZycSzdoMxzqkAREc-64" target="prt4gkJ73rs69msBRRF9-148">
          <mxGeometry relative="1" as="geometry" />
        </mxCell>
        <mxCell id="HX9ZZycSzdoMxzqkAREc-86" style="rounded=0;orthogonalLoop=1;jettySize=auto;html=1;exitX=0.5;exitY=1;exitDx=0;exitDy=0;entryX=0.5;entryY=0;entryDx=0;entryDy=0;strokeWidth=2;" edge="1" parent="1" source="HX9ZZycSzdoMxzqkAREc-64" target="prt4gkJ73rs69msBRRF9-150">
          <mxGeometry relative="1" as="geometry" />
        </mxCell>
        <mxCell id="HX9ZZycSzdoMxzqkAREc-64" value="Edge Features" style="shape=trapezoid;perimeter=trapezoidPerimeter;whiteSpace=wrap;html=1;fixedSize=1;strokeWidth=2;fillColor=#f8cecc;strokeColor=#b85450;fontStyle=1;fontSize=16;" vertex="1" parent="1">
          <mxGeometry x="450" y="1096" width="220" height="60" as="geometry" />
        </mxCell>
        <mxCell id="HX9ZZycSzdoMxzqkAREc-83" style="rounded=0;orthogonalLoop=1;jettySize=auto;html=1;exitX=0.5;exitY=1;exitDx=0;exitDy=0;strokeWidth=2;" edge="1" parent="1" source="HX9ZZycSzdoMxzqkAREc-65" target="prt4gkJ73rs69msBRRF9-150">
          <mxGeometry relative="1" as="geometry" />
        </mxCell>
        <mxCell id="HX9ZZycSzdoMxzqkAREc-84" style="rounded=0;orthogonalLoop=1;jettySize=auto;html=1;exitX=0.5;exitY=1;exitDx=0;exitDy=0;entryX=0.5;entryY=0;entryDx=0;entryDy=0;strokeWidth=2;" edge="1" parent="1" source="HX9ZZycSzdoMxzqkAREc-65" target="prt4gkJ73rs69msBRRF9-148">
          <mxGeometry relative="1" as="geometry" />
        </mxCell>
        <mxCell id="HX9ZZycSzdoMxzqkAREc-85" style="rounded=0;orthogonalLoop=1;jettySize=auto;html=1;exitX=0.5;exitY=1;exitDx=0;exitDy=0;entryX=0.5;entryY=0;entryDx=0;entryDy=0;strokeWidth=2;" edge="1" parent="1" source="HX9ZZycSzdoMxzqkAREc-65" target="prt4gkJ73rs69msBRRF9-152">
          <mxGeometry relative="1" as="geometry" />
        </mxCell>
        <mxCell id="HX9ZZycSzdoMxzqkAREc-65" value="Node Features" style="shape=trapezoid;perimeter=trapezoidPerimeter;whiteSpace=wrap;html=1;fixedSize=1;strokeWidth=2;fillColor=#f8cecc;strokeColor=#b85450;fontStyle=1;fontSize=16;" vertex="1" parent="1">
          <mxGeometry x="815" y="1096" width="220" height="60" as="geometry" />
        </mxCell>
        <mxCell id="HX9ZZycSzdoMxzqkAREc-66" value="Global Features" style="shape=trapezoid;perimeter=trapezoidPerimeter;whiteSpace=wrap;html=1;fixedSize=1;strokeWidth=2;fillColor=#f8cecc;strokeColor=#b85450;fontStyle=1;fontSize=16;" vertex="1" parent="1">
          <mxGeometry x="1170" y="1096" width="220" height="60" as="geometry" />
        </mxCell>
        <mxCell id="HX9ZZycSzdoMxzqkAREc-67" value="MetaLayer (64)" style="rounded=0;whiteSpace=wrap;html=1;strokeWidth=3;fillColor=#FFE6CC;strokeColor=#d6b656;perimeterSpacing=1;gradientColor=none;fontSize=33;fontFamily=Avenir;fontStyle=1" vertex="1" parent="1">
          <mxGeometry x="430" y="650" width="980" height="166" as="geometry" />
        </mxCell>
        <mxCell id="HX9ZZycSzdoMxzqkAREc-68" value="Source Node&lt;br style=&quot;font-size: 13px;&quot;&gt;Destination Node&lt;br style=&quot;font-size: 13px;&quot;&gt;Edge Feature" style="shape=offPageConnector;whiteSpace=wrap;html=1;strokeWidth=2;fontFamily=Avenir;fontSize=13;fontStyle=1;size=0.2857142857142857;verticalAlign=top;" vertex="1" parent="1">
          <mxGeometry x="450" y="610" width="220" height="70" as="geometry" />
        </mxCell>
        <mxCell id="HX9ZZycSzdoMxzqkAREc-69" value="Source Node&lt;br&gt;Edge Feature" style="shape=offPageConnector;whiteSpace=wrap;html=1;strokeWidth=2;fontFamily=Avenir;fontSize=13;fontStyle=1;size=0.2857142857142857;verticalAlign=middle;" vertex="1" parent="1">
          <mxGeometry x="690" y="610" width="220" height="70" as="geometry" />
        </mxCell>
        <mxCell id="HX9ZZycSzdoMxzqkAREc-70" value="Destination Node" style="shape=offPageConnector;whiteSpace=wrap;html=1;strokeWidth=2;fontFamily=Avenir;fontSize=13;fontStyle=1;size=0.2857142857142857;verticalAlign=middle;" vertex="1" parent="1">
          <mxGeometry x="930" y="610" width="220" height="70" as="geometry" />
        </mxCell>
        <mxCell id="HX9ZZycSzdoMxzqkAREc-71" value="Global Feature" style="shape=offPageConnector;whiteSpace=wrap;html=1;strokeWidth=2;fontFamily=Avenir;fontSize=13;fontStyle=1;size=0.2857142857142857;verticalAlign=middle;" vertex="1" parent="1">
          <mxGeometry x="1170" y="610" width="220" height="70" as="geometry" />
        </mxCell>
        <mxCell id="HX9ZZycSzdoMxzqkAREc-77" style="rounded=0;orthogonalLoop=1;jettySize=auto;html=1;exitX=0.5;exitY=1;exitDx=0;exitDy=0;entryX=0.5;entryY=0;entryDx=0;entryDy=0;strokeWidth=2;" edge="1" parent="1" source="HX9ZZycSzdoMxzqkAREc-72" target="HX9ZZycSzdoMxzqkAREc-60">
          <mxGeometry relative="1" as="geometry" />
        </mxCell>
        <mxCell id="HX9ZZycSzdoMxzqkAREc-78" style="rounded=0;orthogonalLoop=1;jettySize=auto;html=1;exitX=0.5;exitY=1;exitDx=0;exitDy=0;entryX=0.5;entryY=0;entryDx=0;entryDy=0;strokeWidth=2;" edge="1" parent="1" source="HX9ZZycSzdoMxzqkAREc-72" target="HX9ZZycSzdoMxzqkAREc-61">
          <mxGeometry relative="1" as="geometry" />
        </mxCell>
        <mxCell id="HX9ZZycSzdoMxzqkAREc-72" value="Edge Features" style="shape=trapezoid;perimeter=trapezoidPerimeter;whiteSpace=wrap;html=1;fixedSize=1;strokeWidth=2;fillColor=#f8cecc;strokeColor=#b85450;fontStyle=1;fontSize=16;" vertex="1" parent="1">
          <mxGeometry x="450" y="786" width="220" height="60" as="geometry" />
        </mxCell>
        <mxCell id="HX9ZZycSzdoMxzqkAREc-79" style="rounded=0;orthogonalLoop=1;jettySize=auto;html=1;exitX=0.5;exitY=1;exitDx=0;exitDy=0;entryX=0.5;entryY=0;entryDx=0;entryDy=0;strokeWidth=2;" edge="1" parent="1" source="HX9ZZycSzdoMxzqkAREc-73" target="HX9ZZycSzdoMxzqkAREc-62">
          <mxGeometry relative="1" as="geometry" />
        </mxCell>
        <mxCell id="HX9ZZycSzdoMxzqkAREc-80" style="rounded=0;orthogonalLoop=1;jettySize=auto;html=1;exitX=0.5;exitY=1;exitDx=0;exitDy=0;entryX=0.5;entryY=0;entryDx=0;entryDy=0;strokeWidth=2;" edge="1" parent="1" source="HX9ZZycSzdoMxzqkAREc-73" target="HX9ZZycSzdoMxzqkAREc-61">
          <mxGeometry relative="1" as="geometry" />
        </mxCell>
        <mxCell id="HX9ZZycSzdoMxzqkAREc-81" style="rounded=0;orthogonalLoop=1;jettySize=auto;html=1;exitX=0.5;exitY=1;exitDx=0;exitDy=0;entryX=0.5;entryY=0;entryDx=0;entryDy=0;strokeWidth=2;" edge="1" parent="1" source="HX9ZZycSzdoMxzqkAREc-73" target="HX9ZZycSzdoMxzqkAREc-60">
          <mxGeometry relative="1" as="geometry" />
        </mxCell>
        <mxCell id="HX9ZZycSzdoMxzqkAREc-73" value="Node Features" style="shape=trapezoid;perimeter=trapezoidPerimeter;whiteSpace=wrap;html=1;fixedSize=1;strokeWidth=2;fillColor=#f8cecc;strokeColor=#b85450;fontStyle=1;fontSize=16;" vertex="1" parent="1">
          <mxGeometry x="815" y="786" width="220" height="60" as="geometry" />
        </mxCell>
        <mxCell id="HX9ZZycSzdoMxzqkAREc-74" value="Global Features" style="shape=trapezoid;perimeter=trapezoidPerimeter;whiteSpace=wrap;html=1;fixedSize=1;strokeWidth=2;fillColor=#f8cecc;strokeColor=#b85450;fontStyle=1;fontSize=16;" vertex="1" parent="1">
          <mxGeometry x="1170" y="786" width="220" height="60" as="geometry" />
        </mxCell>
      </root>
    </mxGraphModel>
  </diagram>
  <diagram id="gyI_rx03P97VPXX67alj" name="Meta_Full">
    <mxGraphModel dx="1012" dy="729" grid="1" gridSize="10" guides="1" tooltips="1" connect="1" arrows="1" fold="1" page="1" pageScale="1" pageWidth="1654" pageHeight="2336" math="0" shadow="0">
      <root>
        <mxCell id="0" />
        <mxCell id="1" parent="0" />
      </root>
    </mxGraphModel>
  </diagram>
</mxfile>
